<mxfile host="app.diagrams.net" modified="2023-04-12T13:25:26.192Z" agent="Mozilla/5.0 (Macintosh; Intel Mac OS X 10.15; rv:109.0) Gecko/20100101 Firefox/111.0" etag="ihDVJ9nBE-UZpnxFUMdH" version="21.1.7" type="google">
  <diagram name="Pagina-1" id="7c1bgI95sN2sgW7Xfdgk">
    <mxGraphModel grid="1" page="1" gridSize="10" guides="1" tooltips="1" connect="1" arrows="1" fold="1" pageScale="1" pageWidth="827" pageHeight="1169" math="0" shadow="0">
      <root>
        <mxCell id="0" />
        <mxCell id="1" parent="0" />
        <mxCell id="FJmujMEEc8WZnrIGeCsU-1" value="" style="edgeStyle=orthogonalEdgeStyle;rounded=0;orthogonalLoop=1;jettySize=auto;html=1;" edge="1" parent="1" target="FJmujMEEc8WZnrIGeCsU-3">
          <mxGeometry relative="1" as="geometry">
            <mxPoint x="420" y="100" as="sourcePoint" />
          </mxGeometry>
        </mxCell>
        <mxCell id="FJmujMEEc8WZnrIGeCsU-2" value="" style="edgeStyle=orthogonalEdgeStyle;rounded=0;orthogonalLoop=1;jettySize=auto;html=1;" edge="1" parent="1" source="FJmujMEEc8WZnrIGeCsU-3" target="FJmujMEEc8WZnrIGeCsU-8">
          <mxGeometry relative="1" as="geometry" />
        </mxCell>
        <mxCell id="FJmujMEEc8WZnrIGeCsU-3" value="int prodotto = 0" style="rounded=0;whiteSpace=wrap;html=1;" vertex="1" parent="1">
          <mxGeometry x="360" y="130" width="120" height="60" as="geometry" />
        </mxCell>
        <mxCell id="FJmujMEEc8WZnrIGeCsU-4" value="V" style="edgeStyle=orthogonalEdgeStyle;rounded=0;orthogonalLoop=1;jettySize=auto;html=1;" edge="1" parent="1" source="FJmujMEEc8WZnrIGeCsU-8" target="FJmujMEEc8WZnrIGeCsU-9">
          <mxGeometry relative="1" as="geometry" />
        </mxCell>
        <mxCell id="FJmujMEEc8WZnrIGeCsU-5" style="edgeStyle=orthogonalEdgeStyle;rounded=0;orthogonalLoop=1;jettySize=auto;html=1;entryX=-0.025;entryY=0.65;entryDx=0;entryDy=0;entryPerimeter=0;" edge="1" parent="1" source="FJmujMEEc8WZnrIGeCsU-8" target="FJmujMEEc8WZnrIGeCsU-9">
          <mxGeometry relative="1" as="geometry">
            <mxPoint x="270" y="270" as="targetPoint" />
            <Array as="points">
              <mxPoint x="280" y="260" />
              <mxPoint x="280" y="389" />
            </Array>
          </mxGeometry>
        </mxCell>
        <mxCell id="FJmujMEEc8WZnrIGeCsU-6" style="edgeStyle=orthogonalEdgeStyle;rounded=0;orthogonalLoop=1;jettySize=auto;html=1;" edge="1" parent="1" source="FJmujMEEc8WZnrIGeCsU-8" target="FJmujMEEc8WZnrIGeCsU-11">
          <mxGeometry relative="1" as="geometry" />
        </mxCell>
        <mxCell id="FJmujMEEc8WZnrIGeCsU-7" value="F" style="edgeLabel;html=1;align=center;verticalAlign=middle;resizable=0;points=[];" connectable="0" vertex="1" parent="FJmujMEEc8WZnrIGeCsU-6">
          <mxGeometry x="-0.4741" y="1" relative="1" as="geometry">
            <mxPoint as="offset" />
          </mxGeometry>
        </mxCell>
        <mxCell id="FJmujMEEc8WZnrIGeCsU-8" value="&lt;div&gt;int i = 1; i&amp;lt;=15;&lt;/div&gt;&lt;div&gt;i++&lt;br&gt;&lt;/div&gt;" style="shape=hexagon;perimeter=hexagonPerimeter2;whiteSpace=wrap;html=1;fixedSize=1;" vertex="1" parent="1">
          <mxGeometry x="360" y="230" width="120" height="80" as="geometry" />
        </mxCell>
        <mxCell id="FJmujMEEc8WZnrIGeCsU-9" value="prodotto*=i" style="rounded=0;whiteSpace=wrap;html=1;" vertex="1" parent="1">
          <mxGeometry x="360" y="350" width="120" height="60" as="geometry" />
        </mxCell>
        <mxCell id="FJmujMEEc8WZnrIGeCsU-10" value="" style="edgeStyle=orthogonalEdgeStyle;rounded=0;orthogonalLoop=1;jettySize=auto;html=1;" edge="1" parent="1" source="FJmujMEEc8WZnrIGeCsU-11" target="FJmujMEEc8WZnrIGeCsU-13">
          <mxGeometry relative="1" as="geometry" />
        </mxCell>
        <mxCell id="FJmujMEEc8WZnrIGeCsU-11" value="prodotto" style="shape=parallelogram;perimeter=parallelogramPerimeter;whiteSpace=wrap;html=1;fixedSize=1;" vertex="1" parent="1">
          <mxGeometry x="520" y="440" width="120" height="60" as="geometry" />
        </mxCell>
        <mxCell id="FJmujMEEc8WZnrIGeCsU-12" value="o" style="text;html=1;align=center;verticalAlign=middle;resizable=0;points=[];autosize=1;strokeColor=none;fillColor=none;" vertex="1" parent="1">
          <mxGeometry x="595" y="400" width="30" height="30" as="geometry" />
        </mxCell>
        <mxCell id="FJmujMEEc8WZnrIGeCsU-13" value="Start" style="ellipse;whiteSpace=wrap;html=1;" vertex="1" parent="1">
          <mxGeometry x="520" y="530" width="120" height="80" as="geometry" />
        </mxCell>
        <mxCell id="FJmujMEEc8WZnrIGeCsU-14" value="Start" style="ellipse;whiteSpace=wrap;html=1;" vertex="1" parent="1">
          <mxGeometry x="360" y="20" width="120" height="80" as="geometry" />
        </mxCell>
      </root>
    </mxGraphModel>
  </diagram>
</mxfile>
